<svg width="736" height="736" viewBox="0 0 736 736" fill="none" xmlns="http://www.w3.org/2000/svg">
<path d="M109.119 282.727V326.107L80.9598 359.168C74.2163 353.409 69.3998 345.722 67.1591 337.141C64.9184 328.561 65.3611 319.5 68.4277 311.179C71.4943 302.859 77.0374 295.677 84.3103 290.603C91.5832 285.529 100.236 282.806 109.104 282.801L109.119 282.727Z" fill="#EBEBEB"/>
<path d="M161.331 330.523C161.343 338.816 158.978 346.94 154.515 353.93C150.052 360.921 143.678 366.485 136.15 369.964C128.621 373.443 120.253 374.692 112.037 373.561C103.821 372.43 96.1007 368.968 89.792 363.584L117.937 330.596V287.143C123.634 287.139 129.277 288.259 134.542 290.437C139.807 292.616 144.59 295.811 148.619 299.84C152.648 303.869 155.844 308.653 158.022 313.918C160.201 319.182 161.32 324.825 161.316 330.523H161.331Z" fill="#EBEBEB"/>
<path d="M161.331 330.523C161.343 338.816 158.978 346.94 154.515 353.93C150.052 360.921 143.678 366.485 136.15 369.964C128.621 373.443 120.253 374.692 112.037 373.561C103.821 372.43 96.1007 368.968 89.792 363.584L117.937 330.596V287.143C123.634 287.139 129.277 288.259 134.542 290.437C139.807 292.616 144.59 295.811 148.619 299.84C152.648 303.869 155.844 308.653 158.022 313.918C160.201 319.182 161.32 324.825 161.316 330.523H161.331Z" fill="#DBDBDB"/>
<path d="M90.5423 249.004H89.0703V304.954H90.5423V249.004Z" fill="#C7C7C7"/>
<path d="M89.7917 249.74C88.8682 249.74 87.9654 249.465 87.1978 248.952C86.4301 248.439 85.832 247.709 85.4793 246.856C85.1265 246.002 85.035 245.063 85.2162 244.158C85.3975 243.252 85.8434 242.421 86.4974 241.769C87.1515 241.117 87.9843 240.673 88.8904 240.495C89.7966 240.317 90.7352 240.411 91.5876 240.766C92.44 241.122 93.1677 241.722 93.6787 242.492C94.1897 243.261 94.4609 244.165 94.4579 245.088C94.454 246.323 93.9607 247.506 93.086 248.378C92.2114 249.25 91.0267 249.74 89.7917 249.74ZM89.7917 241.894C89.1599 241.894 88.5424 242.081 88.0171 242.432C87.4918 242.783 87.0824 243.282 86.8406 243.866C86.5988 244.449 86.5356 245.092 86.6588 245.711C86.7821 246.331 87.0863 246.9 87.533 247.347C87.9798 247.793 88.5489 248.098 89.1685 248.221C89.7882 248.344 90.4304 248.281 91.0141 248.039C91.5978 247.797 92.0966 247.388 92.4476 246.863C92.7986 246.337 92.9859 245.72 92.9859 245.088C92.9859 244.241 92.6494 243.428 92.0504 242.829C91.4513 242.23 90.6389 241.894 89.7917 241.894Z" fill="#C7C7C7"/>
<path d="M145.168 241.158H101.7V243.116H145.168V241.158Z" fill="#C7C7C7"/>
<path d="M126.297 245.088H101.7V247.046H126.297V245.088Z" fill="#C7C7C7"/>
<path d="M607.847 117.186C606.553 125.923 602.776 134.104 596.966 140.757C591.156 147.409 583.557 152.252 575.074 154.711C566.591 157.169 557.58 157.139 549.113 154.623C540.646 152.108 533.08 147.214 527.315 140.522C521.55 133.831 517.828 125.625 516.593 116.879C515.357 108.134 516.659 99.2172 520.345 91.1906C524.031 83.164 529.945 76.3651 537.383 71.6026C544.822 66.8402 553.471 64.3146 562.304 64.3264V110.4L607.847 117.186Z" fill="#DBDBDB"/>
<path d="M617.739 101.038C617.737 103.299 617.57 105.558 617.239 107.795L571.607 101.038V54.935C577.662 54.9331 583.658 56.1243 589.252 58.4405C594.846 60.7567 599.93 64.1526 604.211 68.434C608.492 72.7154 611.888 77.7986 614.205 83.3929C616.521 88.9873 617.712 94.9832 617.71 101.038H617.739Z" fill="#EBEBEB"/>
<path d="M616.267 126.695H567.235V128.167H616.267V126.695Z" fill="#C7C7C7"/>
<path d="M619.712 131.612C618.885 131.612 618.077 131.366 617.389 130.907C616.702 130.448 616.166 129.795 615.849 129.031C615.533 128.267 615.45 127.426 615.612 126.615C615.773 125.805 616.171 125.06 616.756 124.475C617.34 123.89 618.085 123.492 618.896 123.331C619.707 123.17 620.548 123.252 621.312 123.569C622.075 123.885 622.728 124.421 623.188 125.108C623.647 125.796 623.892 126.604 623.892 127.431C623.892 128.54 623.452 129.603 622.668 130.387C621.884 131.171 620.82 131.612 619.712 131.612ZM619.712 124.737C619.175 124.737 618.651 124.897 618.205 125.195C617.76 125.493 617.413 125.917 617.208 126.413C617.003 126.908 616.951 127.454 617.056 127.98C617.162 128.505 617.422 128.988 617.802 129.366C618.182 129.744 618.666 130.001 619.192 130.104C619.719 130.207 620.264 130.151 620.758 129.944C621.253 129.737 621.675 129.387 621.971 128.94C622.267 128.492 622.423 127.967 622.42 127.431C622.42 127.076 622.35 126.725 622.214 126.397C622.077 126.069 621.878 125.771 621.626 125.521C621.374 125.271 621.076 125.073 620.747 124.938C620.419 124.804 620.067 124.735 619.712 124.737Z" fill="#C7C7C7"/>
<path d="M670.246 124.855H632.165V126.577H670.246V124.855Z" fill="#C7C7C7"/>
<path d="M653.715 128.3H632.165V130.022H653.715V128.3Z" fill="#C7C7C7"/>
<path d="M450.829 546.922H673.351L677.973 455.628H446.207L450.829 546.922Z" fill="#EBEBEB"/>
<path d="M662.797 497.418H569.781L568.03 465.726H664.843L662.797 497.418ZM570.841 496.299H661.752L663.636 466.859H569.222L570.841 496.299Z" fill="#DBDBDB"/>
<path d="M661.09 533.88H573.417L571.945 505.279H662.827L661.09 533.88ZM574.492 532.761H660.03L661.678 506.368H573.182L574.492 532.761Z" fill="#DBDBDB"/>
<path d="M625.246 485.009H609.614L608.627 477.37H626.291L625.246 485.009ZM610.6 483.891H624.26L624.952 478.488H609.908L610.6 483.891Z" fill="#DBDBDB"/>
<path d="M625.246 523.399H609.614L608.627 515.759H626.291L625.246 523.399ZM610.6 522.28H624.26L624.952 516.878H609.908L610.6 522.28Z" fill="#DBDBDB"/>
<path d="M553.384 497.418H460.353L458.602 465.726H555.415L553.384 497.418ZM461.413 496.299H552.324L554.223 466.859H459.794L461.413 496.299Z" fill="#DBDBDB"/>
<path d="M551.661 533.88H463.989L462.517 505.279H553.472L551.661 533.88ZM465.064 532.761H550.602L552.25 506.368H463.754L465.064 532.761Z" fill="#DBDBDB"/>
<path d="M515.818 485.009H500.185L499.199 477.37H516.863L515.818 485.009ZM501.172 483.891H514.832L515.538 478.488H500.48L501.172 483.891Z" fill="#DBDBDB"/>
<path d="M515.818 523.399H500.185L499.199 515.759H516.863L515.818 523.399ZM501.172 522.28H514.832L515.538 516.878H500.48L501.172 522.28Z" fill="#DBDBDB"/>
<path d="M470.789 546.922L469.391 556.872L466.579 576.862H461.089V546.922H470.789Z" fill="#EBEBEB"/>
<path d="M470.789 546.922L469.391 556.872H461.089V546.922H470.789Z" fill="#DBDBDB"/>
<path d="M653.391 546.922L654.789 556.872L657.601 576.862H663.092V546.922H653.391Z" fill="#EBEBEB"/>
<path d="M653.391 546.922L654.789 556.872H663.092V546.922H653.391Z" fill="#DBDBDB"/>
<path d="M639.348 455.569V388.255H622.391V455.569H639.348Z" fill="#C7C7C7"/>
<path d="M639.333 392.067V384.663H622.376V392.067H639.333Z" fill="#DBDBDB"/>
<path d="M639.348 404.285V401.547H622.391V404.285H639.348Z" fill="#DBDBDB"/>
<path d="M639.348 446.767V439.363H622.391V446.767H639.348Z" fill="#DBDBDB"/>
<path d="M622.391 455.584V377.053H610.541V455.584H622.391Z" fill="#DBDBDB"/>
<path d="M620.08 414.633V384.427H612.97V414.633H620.08Z" fill="#EBEBEB"/>
<path d="M534.49 455.542L590.339 400.333L582.009 391.906L526.16 447.115L534.49 455.542Z" fill="#C7C7C7"/>
<path d="M545.91 440.874L567.391 419.639L562.392 414.583L540.911 435.818L545.91 440.874Z" fill="#DBDBDB"/>
<path d="M610.556 455.584V395.939H590.434V455.584H610.556Z" fill="#A6A6A6"/>
<path d="M610.556 449.284V443.72H590.434V449.284H610.556Z" fill="#C7C7C7"/>
<path d="M610.556 440.054V437.905H590.434V440.054H610.556Z" fill="#C7C7C7"/>
<path d="M674.075 450.133L651.966 398.624L639.197 404.105L661.306 455.614L674.075 450.133Z" fill="#A6A6A6"/>
<path d="M671.723 444.671L669.662 439.869L656.893 445.35L658.954 450.152L671.723 444.671Z" fill="#C7C7C7"/>
<path d="M658.595 414.053L656.534 409.251L643.765 414.732L645.826 419.534L658.595 414.053Z" fill="#C7C7C7"/>
<path d="M660.84 419.195L660.039 417.328L647.27 422.809L648.071 424.675L660.84 419.195Z" fill="#C7C7C7"/>
<path d="M368 675.486C514.975 675.486 634.123 659.445 634.123 639.658C634.123 619.87 514.975 603.829 368 603.829C221.024 603.829 101.877 619.87 101.877 639.658C101.877 659.445 221.024 675.486 368 675.486Z" fill="#EBEBEB"/>
<path d="M56.4805 576.862L134.364 576.494L212.233 576.376L368 576.126L523.767 576.362L601.65 576.494L679.519 576.862L601.65 577.215L523.767 577.348L368 577.598L212.233 577.348L134.364 577.215L56.4805 576.862Z" fill="#263238"/>
<path d="M288.821 621.228H280.681L337.75 392.553H358.034L288.821 621.228Z" fill="#455A64"/>
<path d="M358.049 392.568L347.804 426.365H329.315L337.735 392.582L337.75 392.568H358.049Z" fill="#263238"/>
<path d="M367.823 609.084H359.683L365.748 392.553H386.032L367.823 609.084Z" fill="#455A64"/>
<path d="M386.032 392.568L383.191 426.365H364.806L365.748 392.582V392.568H386.032Z" fill="#263238"/>
<path d="M447.179 621.228H455.319L410.394 392.553H390.109L447.179 621.228Z" fill="#455A64"/>
<path d="M417.032 426.365H398.544L390.095 392.568H410.394L410.408 392.582L417.032 426.365Z" fill="#263238"/>
<path d="M430.486 523.267H312.064V527.727H430.486V523.267Z" fill="#455A64"/>
<path d="M580.204 98.5651H155.782V411.733H580.204V98.5651Z" fill="#EBEBEB"/>
<path d="M595.762 86.0826H140.252V109.296H595.762V86.0826Z" fill="#37474F"/>
<path d="M437.611 130.39H298.389V134.011H437.611V130.39Z" fill="#C7C7C7"/>
<path d="M413.809 137.956H322.191V141.577H413.809V137.956Z" fill="#C7C7C7"/>
<path d="M249.946 176.566H207.419V180.188H249.946V176.566Z" fill="#C7C7C7"/>
<path d="M234.092 184.132H207.419V187.754H234.092V184.132Z" fill="#C7C7C7"/>
<path d="M504.13 373.608H465.785V377.229H504.13V373.608Z" fill="#C7C7C7"/>
<path d="M492.457 381.174H465.785V384.796H492.457V381.174Z" fill="#C7C7C7"/>
<path d="M508.988 161.375H486.422V164.408H508.988V161.375Z" fill="#C7C7C7"/>
<path d="M521.824 167.72H486.422V170.752H521.824V167.72Z" fill="#C7C7C7"/>
<path d="M220.329 294.606H207.419V307.516H220.329V294.606Z" fill="#282FBA"/>
<path d="M220.329 318.6H207.419V331.509H220.329V318.6Z" fill="#455A64"/>
<path d="M220.329 342.579H207.419V355.488H220.329V342.579Z" fill="#37474F"/>
<path d="M220.329 366.572H207.419V379.482H220.329V366.572Z" fill="#C7C7C7"/>
<path d="M478.224 232.841H469.598L366.337 266.903H374.963L478.224 232.841Z" fill="#C7C7C7"/>
<path d="M374.963 266.903H366.337L469.598 300.98H478.224L374.963 266.903Z" fill="#C7C7C7"/>
<path d="M374.962 156.665V266.903L478.223 232.841C463.4 186.517 422.935 156.665 374.962 156.665Z" fill="#37474F"/>
<path d="M378.142 156.709L374.978 162.141V161.508L377.789 156.694L378.142 156.709ZM381.425 156.842L374.978 171.444V172.298L381.793 156.871L381.425 156.842ZM393.363 158.166L374.978 188.755V189.549L393.819 158.24L393.363 158.166ZM395.954 158.637L374.978 204.152V205.256L396.395 158.711L395.954 158.637ZM406.169 171.517L411.881 162.95L411.365 162.759L405.728 171.223L388.903 196.468L374.978 217.356V218.283L389.344 196.748L406.169 171.517ZM412.646 163.215L374.978 230.103V231.295L413.161 163.392L412.646 163.215ZM425.644 168.971L374.978 236.359V237.375L426.218 169.28L425.644 168.971ZM426.836 169.604L374.978 250.063V251.344L427.41 169.928L426.836 169.604ZM438.038 176.655L374.978 253.39V254.538L438.656 177.111L438.038 176.655ZM439.363 177.626L380.586 265.048L381.852 264.636L439.996 178.112L439.363 177.626ZM449.152 185.869L383.5 264.092L384.972 263.606L449.74 186.399L449.152 185.869ZM450.241 186.915L398.721 259.043L399.854 258.675L450.8 187.43C450.594 187.283 450.432 187.091 450.241 186.944V186.915ZM458.837 196.424L404.123 257.291L405.448 256.849L459.264 196.939L458.837 196.424ZM460.192 198.146L420.786 251.786L421.772 251.462L460.589 198.72L460.192 198.146ZM467.081 208.229L429.662 248.871L430.752 248.503L467.36 208.759C467.278 208.577 467.184 208.4 467.081 208.229ZM468.111 209.951L441.056 245.103L441.88 244.838L468.376 210.422L468.111 209.951ZM473.896 221.345L455.187 240.481L456.099 240.172L474.073 221.786L473.896 221.345ZM474.882 223.685L463.68 237.64L464.372 237.404L475.029 224.156C474.992 224.015 474.943 223.877 474.882 223.744V223.685Z" fill="#263238"/>
<path d="M374.963 156.665H366.337V266.903H374.963V156.665Z" fill="#263238"/>
<path d="M374.963 266.903H366.337L263.091 300.98H271.717L374.963 266.903Z" fill="#282FBA"/>
<path d="M374.962 266.903L271.716 300.98C278.625 322.984 292.347 342.224 310.902 355.921C329.457 369.618 351.885 377.065 374.948 377.185C386.358 377.177 397.693 375.344 408.524 371.754C442.733 360.478 467.11 335.719 478.223 300.98L374.962 266.903Z" fill="#282FBA"/>
<path d="M271.717 300.98H263.091C269.997 322.985 283.719 342.226 302.274 355.924C320.83 369.621 343.259 377.067 366.322 377.185H374.948C351.885 377.065 329.457 369.618 310.902 355.921C292.347 342.224 278.625 322.984 271.717 300.98Z" fill="#282FBA"/>
<g opacity="0.1">
<path d="M271.717 300.98H263.091C269.997 322.985 283.719 342.226 302.274 355.924C320.83 369.621 343.259 377.067 366.322 377.185H374.948C351.885 377.065 329.457 369.618 310.902 355.921C292.347 342.224 278.625 322.984 271.717 300.98Z" fill="black"/>
</g>
<path opacity="0.1" d="M276.427 299.42L275.264 310.592C275.259 310.553 275.259 310.513 275.264 310.474L276.383 299.42H276.427ZM288.1 295.578L279.68 319.645C279.684 319.674 279.684 319.704 279.68 319.733L288.218 295.533L288.1 295.578ZM292.251 294.209L287.232 331.877L287.349 332.039L292.369 294.164L292.251 294.209ZM299.611 291.765L288.954 334.144L289.057 334.291L299.832 291.603L299.611 291.765ZM302.555 290.808L297.109 343.8C297.165 343.871 297.229 343.935 297.3 343.992L302.746 290.808H302.555ZM311.284 287.864L298.816 345.508L299.008 345.699L311.52 287.835L311.284 287.864ZM313.418 287.158L308.634 354.119L308.914 354.325L313.683 287.069L313.418 287.158ZM310.224 355.326C310.311 355.403 310.405 355.472 310.504 355.532L322.103 284.287L321.75 284.42L310.224 355.326ZM324.576 283.478L324.164 364.261L324.547 364.467L324.929 283.36L324.576 283.478ZM325.356 364.894L325.739 365.085L334.571 280.166L334.115 280.328L325.356 364.894ZM336.647 279.518L336.205 279.68L337.515 370.355L338.016 370.547L336.647 279.518ZM338.472 370.782L338.958 370.959L345.876 276.545L345.331 276.736L338.472 370.782ZM347.495 276.015L346.951 276.191L350.572 374.388C350.763 374.388 350.969 374.492 351.175 374.521L347.495 276.015ZM351.676 374.639C351.874 374.697 352.075 374.741 352.279 374.771L358.55 272.32L357.888 272.541L351.676 374.639ZM365.439 376.611L360.125 271.849L359.463 272.07L364.732 376.744H365.439H366.145L369.089 268.772L368.309 269.023L365.439 376.611ZM379.335 376.449L370.782 268.331L370.017 268.581L378.643 377.156C378.868 377.171 379.094 377.171 379.32 377.156H379.393H380.056L381.911 269.288L381.204 269.067L379.335 376.449ZM383.294 269.685L382.588 269.464L393.113 375.654L393.731 375.551L383.294 269.685ZM391.066 272.261L393.731 375.551L394.349 375.434L391.655 272.394L391.066 272.261ZM392.965 272.879L392.347 272.673L408.215 371.901L408.539 371.798H408.716L392.965 272.879ZM407.685 352.603L405.286 323.663L401.282 275.632L400.796 275.47L404.8 323.649L407.2 352.603L408.407 367.073L408.789 371.68L409.29 371.503L408.922 367.087L407.685 352.603ZM403.004 276.191L402.489 276.029L424.304 365.306L424.687 365.115L403.004 276.191ZM414.589 280.019L425.585 364.644L425.968 364.452L414.972 280.151L414.589 280.019ZM416.694 280.71L416.297 280.578L436.537 358.123L436.816 357.932L416.694 280.71ZM442.454 289.219L449.946 347.289L450.153 347.098L442.66 289.277L442.454 289.219ZM444.942 290.043H444.736L460.03 336.161L460.162 335.999L444.942 290.043ZM428.028 284.449L438.406 356.813C438.506 356.759 438.6 356.695 438.686 356.621L428.308 284.493L428.028 284.449ZM437.891 311.254L431.046 287.702L430.31 285.171L430.016 285.068L430.796 287.776L437.641 311.328L448.533 348.599L448.725 348.437L437.891 311.254ZM451.904 292.295L461.148 334.556C461.191 334.505 461.231 334.451 461.266 334.394L452.051 292.339L451.904 292.295ZM454.083 293.016H453.921L466.83 326.166C466.83 326.166 466.904 326.166 466.904 326.048L454.083 293.016ZM460.795 295.224L468.155 323.869C468.155 323.869 468.155 323.796 468.155 323.752L460.795 295.254V295.224ZM464.505 296.446H464.416L473.675 313.006L464.505 296.446ZM471.232 298.669L475.206 309.341L471.246 298.742L471.232 298.669ZM477.502 300.744C477.708 301.009 477.9 301.274 478.076 301.554C477.87 301.26 477.694 300.995 477.502 300.744Z" fill="black"/>
<path d="M374.963 156.665C315.008 156.665 266.432 206.08 266.432 266.903C266.335 278.476 268.13 289.986 271.746 300.98L374.992 266.903L374.963 156.665Z" fill="#455A64"/>
<path d="M374.963 244.013V244.852L279.194 214.912L279.548 214.205L374.963 244.013ZM278.576 216.163L374.963 256.761V255.981L278.915 215.486C278.797 215.707 278.679 215.928 278.576 216.163ZM287.408 201.811C287.243 202.018 287.091 202.234 286.952 202.459L375.022 232.708V231.958L287.408 201.811ZM286.113 203.651L375.022 242.173V241.29L286.554 203.018C286.348 203.21 286.186 203.43 286.054 203.651H286.113ZM308.369 179.878L307.913 180.246L374.963 206.08V205.58L308.369 179.878ZM306.029 181.792L375.022 215.53V214.912L306.485 181.424C306.307 181.537 306.135 181.66 305.97 181.792H306.029ZM297.344 189.888C297.168 190.05 297.006 190.227 296.858 190.388L375.022 218.356V217.856L297.344 189.888ZM295.239 192.125L375.022 229.985V229.22L295.637 191.654L295.239 192.125ZM340.871 162.214L340.474 162.332L374.992 179.113V178.804L340.871 162.214ZM336.043 163.951L374.992 187.503V187.091L336.441 163.834L336.043 163.951ZM322.044 170.634C321.888 170.709 321.735 170.792 321.588 170.884L374.992 192.611V192.199L322.044 170.634ZM318.629 172.651L374.992 202.385V201.885L319.056 172.445L318.629 172.651ZM359.168 157.813H358.844L374.963 166.336V166.13L359.168 157.813ZM351.941 159.153L374.904 174.682V174.373L352.265 159.079C352.174 159.093 352.085 159.118 352 159.153H351.941ZM369.796 156.797H369.531L374.904 160.713V160.448L369.796 156.797ZM266.756 277.752L310.062 288.291L310.607 288.1L266.727 277.413C266.859 277.531 266.859 277.649 266.874 277.752H266.756ZM266.579 275.441C266.579 275.558 266.579 275.676 266.579 275.794L325.268 283.257L326.078 282.992L266.579 275.441ZM269.067 291.883L285.951 296.299L286.348 296.166L269.008 291.75C269.064 291.799 269.123 291.843 269.185 291.883H269.067ZM268.773 290.602C268.764 290.685 268.764 290.769 268.773 290.852L294.547 293.384L295.151 293.193L268.773 290.602ZM266.432 262.899L334.144 280.342L334.836 280.122L266.417 262.458C266.414 262.605 266.419 262.752 266.432 262.899ZM266.521 261.044C266.513 261.196 266.513 261.349 266.521 261.501L353.53 273.969L354.561 273.63L266.521 261.044ZM285.657 249.416L271.157 245L268.699 244.249C268.699 244.426 268.625 244.602 268.596 244.779L270.995 245.515L285.495 249.931L314.493 258.851L358.432 272.32L359.242 272.04L314.655 258.307L285.657 249.416ZM268.861 243.439C268.861 243.616 268.773 243.793 268.743 243.969L372.799 267.61L373.873 267.256L268.861 243.439ZM272.762 229.632L373.977 267.197L374.889 266.903L272.983 229.028C272.896 229.225 272.822 229.426 272.762 229.632ZM273.321 228.086C273.234 228.293 273.161 228.504 273.1 228.719L374.963 258.365V257.6L273.321 228.086Z" fill="#37474F"/>
<path d="M374.963 156.665H366.337C306.382 156.665 257.777 206.021 257.777 266.903C257.68 278.476 259.474 289.986 263.091 300.98H271.717C268.11 289.985 266.325 278.474 266.432 266.903C266.432 206.08 315.008 156.665 374.963 156.665Z" fill="#37474F"/>
<path d="M433.43 201.414C434.068 196.402 435.699 191.568 438.229 187.194C440.706 182.744 444.043 178.831 448.047 175.683L448.768 175.065L449.563 174.535L451.153 173.475L452.743 172.43C453.287 172.106 453.862 171.841 454.436 171.547C455.569 170.988 456.702 170.413 457.851 169.884L461.428 168.632L463.223 168.044L465.078 167.646L468.773 166.866C470.016 166.667 471.269 166.535 472.526 166.468L476.265 166.174V166.336C473.807 166.778 471.334 167.116 468.905 167.617L465.314 168.588L463.518 169.059L461.796 169.736L458.336 171.076C457.232 171.606 456.158 172.209 455.069 172.769C454.524 173.063 453.965 173.313 453.435 173.622L451.963 174.653L450.491 175.683L449.725 176.198L449.033 176.802C445.156 179.837 441.847 183.535 439.259 187.724C438.567 188.755 438.023 189.873 437.405 190.933C436.786 191.993 436.33 193.171 435.844 194.304C434.829 196.597 434.021 198.977 433.43 201.414Z" fill="#263238"/>
<path d="M472.041 172.813L470.937 171.841L475.721 166.395L469.936 162.008L470.819 160.845L477.87 166.174L472.041 172.813Z" fill="#263238"/>
<path d="M425.01 333.496C425.35 335.697 425.842 337.87 426.482 340.003C426.821 341.077 427.174 342.122 427.542 343.167C427.91 344.212 428.352 345.243 428.808 346.244C430.602 350.299 432.923 354.101 435.712 357.549C439.889 362.712 444.984 367.059 450.741 370.37C452.654 371.489 454.7 372.372 456.702 373.417L456.629 373.608L453.479 372.401C452.409 372.045 451.37 371.602 450.373 371.076C448.332 370.09 446.364 368.959 444.485 367.691C436.913 362.558 431.106 355.219 427.851 346.671C426.188 342.465 425.228 338.014 425.01 333.496Z" fill="#263238"/>
<path d="M449.887 377.185L449.372 375.802L456.158 373.24L453.096 366.66L454.436 366.042L458.16 374.05L449.887 377.185Z" fill="#263238"/>
<path d="M298.566 203.239C297.524 201.639 296.384 200.105 295.151 198.646C293.961 197.167 292.683 195.762 291.324 194.436C288.672 191.78 285.706 189.457 282.492 187.518C279.277 185.579 275.759 184.195 272.084 183.426C271.157 183.249 270.244 183.014 269.317 182.881L266.432 182.675C265.486 182.602 264.537 182.602 263.591 182.675L260.735 182.778V182.543C264.532 181.745 268.443 181.646 272.276 182.248L273.748 182.469L275.22 182.867C276.147 183.161 277.119 183.338 278.017 183.72L280.725 184.868C281.608 185.281 282.433 185.796 283.286 186.34C286.626 188.325 289.644 190.807 292.236 193.7C294.791 196.561 296.923 199.773 298.566 203.239Z" fill="#263238"/>
<path d="M264.872 176.184L265.99 177.126L261.309 182.675L267.183 186.944L266.314 188.136L259.16 182.925L264.872 176.184Z" fill="#263238"/>
<path d="M615.782 567.942C615.782 567.942 617.254 626.262 617.254 626.292C617.254 637.082 616.989 646.532 616.415 651.404V651.478C616.398 652.633 616.121 653.77 615.605 654.804V654.878C612.381 657.042 526.24 659.294 523.208 658.337C520.175 657.38 522.604 648.696 525.872 645.943C529.14 643.19 561.759 627.587 561.759 627.587L560.817 569.296L615.782 567.942Z" fill="#AD6359"/>
<path d="M617.357 614.722C617.357 614.722 617.269 626.262 617.269 626.292C617.269 637.082 617.004 646.532 616.43 651.404V651.478C616.286 652.614 616.014 653.73 615.62 654.805V654.878C612.396 657.042 526.255 659.294 523.223 658.337C520.19 657.38 522.619 648.696 525.887 645.943C529.155 643.19 561.774 627.587 561.774 627.587V615.811L617.357 614.722Z" fill="white"/>
<path d="M556.416 627.617C562.142 626.675 569.119 627.69 573.403 631.856C573.565 632.018 573.329 632.253 573.153 632.195C567.727 630.316 562.116 629.023 556.416 628.338C556.333 628.321 556.258 628.276 556.204 628.21C556.15 628.145 556.121 628.062 556.121 627.977C556.121 627.892 556.15 627.81 556.204 627.744C556.258 627.679 556.333 627.634 556.416 627.617Z" fill="#263238"/>
<path d="M552.265 630.016C558.006 629.074 564.968 630.09 569.252 634.255C569.414 634.417 569.178 634.653 569.002 634.594C563.576 632.715 557.965 631.422 552.265 630.737C552.182 630.72 552.107 630.675 552.053 630.61C552 630.544 551.97 630.462 551.97 630.377C551.97 630.292 552 630.21 552.053 630.144C552.107 630.078 552.182 630.033 552.265 630.016Z" fill="#263238"/>
<path d="M548.085 632.415C553.825 631.459 560.788 632.489 565.072 636.655C565.233 636.817 565.072 637.052 564.821 636.993C559.401 635.113 553.795 633.82 548.099 633.137C548.016 633.122 547.94 633.078 547.885 633.013C547.83 632.949 547.799 632.867 547.797 632.782C547.795 632.697 547.823 632.614 547.875 632.547C547.928 632.481 548.002 632.434 548.085 632.415Z" fill="#263238"/>
<path d="M523.164 658.337C526.196 659.279 612.337 657.042 615.561 654.878C616.798 654.069 617.21 641.498 617.254 626.307V625.821L561.671 626.645V627.587C561.671 627.587 529.081 643.19 525.784 645.943C522.487 648.696 520.131 657.425 523.164 658.337Z" fill="#37474F"/>
<path d="M617.268 625.821V626.307C617.268 641.498 616.797 654.069 615.561 654.878C614.089 655.864 595.424 656.865 575.258 657.587C551.117 658.44 524.812 658.852 523.163 658.352C520.131 657.41 522.575 648.696 525.828 645.943C529.081 643.19 561.715 627.587 561.715 627.587V626.645L580.248 626.365L617.268 625.821Z" fill="#282FBA"/>
<path d="M524.032 655.04C538.531 654.304 597.132 652.714 611.528 653.097C611.645 653.097 611.645 653.171 611.528 653.185C597.161 654.23 538.561 655.334 524.032 655.276C523.752 655.217 523.752 655.04 524.032 655.04Z" fill="#263238"/>
<path opacity="0.1" d="M580.203 626.365C578.849 635.683 576.774 649.402 575.258 657.587C551.117 658.44 524.812 658.852 523.163 658.352C520.131 657.41 522.575 648.696 525.828 645.943C529.081 643.19 561.715 627.587 561.715 627.587V626.645L580.203 626.365Z" fill="black"/>
<path d="M622.273 626.616L559.934 627.204C559.934 627.204 556.401 525.725 556.136 491.869C555.827 453.214 558.02 337.309 558.02 337.309H604.624C604.624 337.309 617.121 362.863 609.982 391.626L608.01 495.078L622.273 626.616Z" fill="#37474F"/>
<path d="M617.651 615.708C616.006 615.487 614.35 615.354 612.691 615.311C610.851 615.178 609.011 615.046 607.171 614.957C603.623 614.81 600.076 614.751 596.528 614.737C589.36 614.737 582.206 614.737 575.052 614.987C570.989 615.119 566.912 615.281 562.849 615.502C562.814 615.502 562.78 615.516 562.755 615.541C562.73 615.566 562.716 615.6 562.716 615.635C562.716 615.67 562.73 615.703 562.755 615.728C562.78 615.753 562.814 615.767 562.849 615.767C569.944 616.017 577.054 616.135 584.149 616.268C591.244 616.4 598.339 616.547 605.419 616.415C607.465 616.415 609.496 616.415 611.528 616.238C613.559 616.062 615.635 616.238 617.622 615.944C617.74 615.929 617.799 615.723 617.651 615.708Z" fill="#263238"/>
<path d="M564.424 559.684C563.702 542.903 563.172 526.108 562.701 509.312C561.789 475.731 561.548 442.14 561.98 408.539C562.216 389.697 562.716 370.856 563.275 352.014C563.275 351.793 562.966 351.808 562.952 352.014C561.17 385.752 560.479 419.535 560.449 453.317C560.42 487.1 561.112 520.514 562.775 554.076C563.702 572.902 564.85 591.744 566.617 610.527C566.617 610.562 566.631 610.596 566.656 610.62C566.68 610.645 566.714 610.659 566.749 610.659C566.784 610.659 566.818 610.645 566.843 610.62C566.868 610.596 566.882 610.562 566.882 610.527C566.116 593.569 565.16 576.627 564.424 559.684Z" fill="#263238"/>
<path d="M549.056 577.215C549.056 577.215 548.585 633.578 548.585 633.608C548.585 644.383 548.335 653.833 547.761 658.72C547.767 658.744 547.767 658.769 547.761 658.794C547.76 659.951 547.482 661.092 546.951 662.12C546.958 662.144 546.958 662.17 546.951 662.194C543.742 664.358 457.601 666.61 454.569 665.653C451.536 664.696 453.95 656.012 457.233 653.259C460.515 650.506 493.12 634.888 493.12 634.888L494.121 578.57L549.056 577.215Z" fill="#AD6359"/>
<path d="M548.732 622.038C548.732 622.038 548.629 633.578 548.629 633.608C548.629 644.383 548.379 653.833 547.805 658.72C547.811 658.744 547.811 658.769 547.805 658.794C547.667 659.93 547.395 661.047 546.995 662.12C547.002 662.144 547.002 662.17 546.995 662.194C543.786 664.358 457.645 666.61 454.613 665.653C451.58 664.696 453.994 656.012 457.277 653.259C460.559 650.506 493.12 634.888 493.12 634.888L493.047 623.112L548.732 622.038Z" fill="white"/>
<path d="M487.806 634.933C493.547 633.976 500.51 635.006 504.793 639.172C504.955 639.334 504.793 639.569 504.543 639.51C499.123 637.63 493.517 636.337 487.821 635.654C487.737 635.639 487.662 635.595 487.607 635.53C487.551 635.466 487.52 635.384 487.519 635.299C487.517 635.214 487.545 635.131 487.597 635.065C487.649 634.998 487.723 634.951 487.806 634.933Z" fill="#263238"/>
<path d="M483.626 637.376C489.366 636.419 496.329 637.376 500.613 641.615C500.789 641.777 500.613 642.013 500.362 641.939C494.94 640.071 489.335 638.783 483.64 638.097C483.557 638.082 483.481 638.039 483.426 637.974C483.371 637.909 483.34 637.828 483.338 637.743C483.336 637.658 483.364 637.575 483.416 637.508C483.469 637.441 483.543 637.395 483.626 637.376Z" fill="#263238"/>
<path d="M479.445 639.716C485.186 638.774 492.163 639.805 496.432 643.971C496.609 644.132 496.432 644.368 496.182 644.294C490.76 642.421 485.154 641.128 479.46 640.438C479.376 640.423 479.3 640.379 479.245 640.314C479.19 640.25 479.159 640.168 479.157 640.083C479.156 639.998 479.183 639.915 479.236 639.848C479.288 639.782 479.362 639.735 479.445 639.716Z" fill="#263238"/>
<path d="M454.539 665.653C457.571 666.595 543.698 664.358 546.922 662.179C548.158 661.384 548.57 648.813 548.629 633.608C548.629 633.446 548.629 633.299 548.629 633.137L493.047 633.961V634.903C493.047 634.903 460.471 650.506 457.174 653.259C453.877 656.012 451.492 664.726 454.539 665.653Z" fill="#282FBA"/>
<path d="M455.422 662.297C469.936 661.561 528.522 659.971 542.933 660.339C543.036 660.339 543.05 660.428 542.933 660.442C528.566 661.473 469.951 662.591 455.422 662.532C455.128 662.532 455.113 662.312 455.422 662.297Z" fill="#263238"/>
<path d="M577.584 396.91C577.584 396.91 552 477.502 551.544 492.325C551.161 504.955 552.766 634.535 552.766 634.535L487.998 634.932C487.998 634.932 493.459 502.776 494.474 489.602C496.359 465.005 517.923 397.44 533.335 337.25H603.123C603.123 337.25 602.519 368.765 588.182 391.567C588.226 391.552 581.735 394.57 577.584 396.91Z" fill="#37474F"/>
<path d="M549.336 622.656C541.858 622.435 534.1 622.214 526.623 622.406C519.145 622.597 511.77 622.7 504.351 623.142C500.156 623.392 495.961 623.524 491.766 623.951C491.743 623.96 491.724 623.975 491.71 623.995C491.696 624.014 491.689 624.038 491.689 624.062C491.689 624.086 491.696 624.109 491.71 624.129C491.724 624.149 491.743 624.164 491.766 624.172C499.243 624.614 506.751 624.525 514.228 624.452C521.706 624.378 529.081 624.305 536.5 623.966C540.71 623.775 544.89 623.554 549.085 623.274C549.542 623.186 549.792 622.656 549.336 622.656Z" fill="#263238"/>
<path d="M535.175 375.228C532.864 382.926 510.151 464.048 507.104 479.445C504.057 494.842 500.171 595.512 500.451 611.645C500.451 613.662 500.451 615.664 500.598 617.666C500.598 617.705 500.613 617.742 500.641 617.77C500.669 617.798 500.706 617.813 500.745 617.813C500.784 617.813 500.822 617.798 500.849 617.77C500.877 617.742 500.892 617.705 500.892 617.666C501.334 601.606 505.617 495.932 508.37 480.196C511.079 464.74 533.659 384.118 535.646 375.345C535.646 375.289 535.628 375.235 535.593 375.191C535.559 375.147 535.511 375.116 535.457 375.103C535.403 375.089 535.346 375.094 535.294 375.117C535.243 375.139 535.202 375.178 535.175 375.228Z" fill="#263238"/>
<path d="M561.568 398.47C564.792 398.449 568.007 398.154 571.18 397.587C574.329 396.893 577.44 396.033 580.498 395.011C583.511 394.329 586.564 393.837 589.639 393.539C592.737 393.086 595.752 392.183 598.589 390.86C598.615 390.853 598.643 390.856 598.667 390.867C598.692 390.878 598.712 390.897 598.724 390.921C598.736 390.946 598.74 390.973 598.734 390.999C598.728 391.026 598.713 391.049 598.692 391.066C595.943 392.55 593.072 393.796 590.11 394.79C587.049 395.762 583.84 395.894 580.719 396.645C577.577 397.607 574.376 398.364 571.136 398.912C567.945 399.307 564.715 399.253 561.539 398.75C561.421 398.662 561.451 398.47 561.568 398.47Z" fill="#263238"/>
<path d="M557.491 462.576C558.109 460.191 558.683 457.792 559.331 455.422C560.641 450.609 561.965 445.795 563.423 441.026C566.367 431.546 569.046 422.008 572.093 412.572C573.83 407.229 575.39 401.812 577.421 396.572C577.421 396.544 577.432 396.518 577.452 396.499C577.471 396.479 577.497 396.468 577.524 396.468C577.552 396.468 577.578 396.479 577.597 396.499C577.617 396.518 577.628 396.544 577.628 396.572C576.597 401.459 575.155 406.243 573.859 411.071C572.564 415.899 571.18 420.683 569.782 425.467C567.029 434.991 564.321 444.529 561.318 453.98C560.464 456.629 559.596 459.264 558.683 461.884C557.77 464.504 557.02 467.345 555.901 469.951C555.896 469.966 555.888 469.981 555.878 469.993C555.867 470.005 555.855 470.016 555.84 470.023C555.826 470.031 555.81 470.035 555.794 470.037C555.778 470.038 555.762 470.037 555.746 470.032C555.731 470.027 555.716 470.019 555.704 470.009C555.692 469.998 555.681 469.986 555.674 469.971C555.666 469.957 555.662 469.941 555.66 469.925C555.659 469.909 555.66 469.893 555.665 469.877C556.092 467.448 556.858 465.02 557.491 462.576Z" fill="#263238"/>
<path d="M559.654 261.648C544.64 284.317 516.672 310.592 509.798 305.926C492.34 294.15 478.076 257.865 474.985 249.71C473.174 244.956 504.837 224.819 507.369 229.588C510.401 235.152 516.834 265.225 519.145 266.079C520.926 266.712 545.273 252.463 551.264 249.887C566.116 243.469 566.028 252.051 559.654 261.648Z" fill="#AD6359"/>
<path d="M538.752 294.061L518.144 264.489C518.144 264.489 539.105 250.579 553.605 246.118C568.104 241.658 568.943 250.77 561.259 263.385C553.575 276 538.752 294.061 538.752 294.061Z" fill="#282FBA"/>
<path d="M532.864 274.999C531.407 275.511 530.033 276.235 528.787 277.148C530.325 277.025 531.838 276.678 533.276 276.118C534.736 275.6 536.113 274.876 537.368 273.969C535.825 274.09 534.307 274.437 532.864 274.999ZM545.744 255.583C545.226 254.124 544.502 252.746 543.595 251.491C543.885 254.585 544.981 257.55 546.774 260.088C546.644 258.542 546.287 257.025 545.715 255.583H545.744ZM564.041 249.592C564.685 250.148 565.38 250.641 566.117 251.064C566.139 250.726 566.139 250.387 566.117 250.049C565.428 249.84 564.724 249.687 564.012 249.592H564.041Z" fill="white"/>
<path d="M524.562 262.296C530.873 270.324 536.637 278.768 541.814 287.57C541.814 287.57 541.652 287.776 541.608 287.717C536.5 281.108 527.33 267.197 524.283 262.516C524.224 262.428 524.503 262.222 524.562 262.296Z" fill="#263238"/>
<path d="M561.303 263.385C553.605 276 538.752 294.061 538.752 294.061L523.929 272.747L560.464 244.985C568.192 245.25 567.515 253.184 561.303 263.385Z" fill="#263238"/>
<path d="M515.2 224.966C509.474 223.273 501.864 217.959 497.418 218.121C496.327 218.123 495.265 218.476 494.39 219.128C493.515 219.78 492.874 220.697 492.561 221.742C492.561 221.742 489.705 217.753 485.701 218.563C483.655 218.975 482.507 222.64 482.507 222.64C481.815 221.778 480.901 221.121 479.864 220.74C478.826 220.359 477.704 220.268 476.619 220.476C473.822 221.227 473.101 224.774 473.101 224.774C473.101 224.774 469.377 222.876 466.771 224.554C461.501 227.954 465.373 252.522 475.014 254.892C479.519 255.996 478.238 250.049 478.238 250.049C478.238 250.049 482.139 258.159 487.217 257.409C492.296 256.658 490.161 249.107 490.161 249.107C490.161 249.107 494.003 256.938 499.199 255.716C504.616 254.435 501.187 247.164 501.187 247.164C501.187 247.164 505.75 252.051 509.518 250.196C515.745 247.134 505.882 238.096 506.309 232.532L514.744 228.116L515.2 224.966Z" fill="#AD6359"/>
<path d="M506.707 221.256C512.271 222.39 517.732 214.853 523.193 215.162C530.553 215.589 524.857 224.745 514.744 228.189L506.427 229.47L506.707 221.256Z" fill="#AD6359"/>
<path d="M482.448 222.522C482.448 222.434 482.286 222.434 482.272 222.522C481.542 232.144 484.278 241.709 489.985 249.489C490.191 249.769 490.647 249.798 490.427 249.489C486.805 244.028 483.022 230.545 482.448 222.522Z" fill="#263238"/>
<path d="M501.805 247.664C496.3 240.01 493.812 231.354 492.531 222.095C492.531 221.978 492.34 222.095 492.325 222.095C491.722 226.791 493.15 232.605 494.651 237.036C495.969 241.171 498.343 244.891 501.54 247.826C501.673 247.973 501.952 247.841 501.805 247.664Z" fill="#263238"/>
<path d="M549.836 259.175C554.517 259.793 562.584 251.315 565.101 245.338C564.649 242.178 564.035 239.044 563.261 235.947C562.657 233.003 562.068 229.573 561.789 226.467L542.785 233.209C544.295 236.994 545.338 240.948 545.891 244.985C545.921 245.416 545.921 245.849 545.891 246.28C545.891 246.28 545.891 246.413 545.891 246.486C545.685 248.915 545.302 258.586 549.836 259.175Z" fill="#AD6359"/>
<path d="M545.847 246.236C545.847 246.236 545.847 246.369 545.847 246.457C546.521 246.472 547.195 246.437 547.864 246.354C559.301 244.72 560.979 231.56 561.2 226.673L542.741 233.209C544.259 236.992 545.307 240.947 545.862 244.985C545.884 245.402 545.88 245.82 545.847 246.236Z" fill="#263238"/>
<path d="M564.542 203.548C566.926 210.422 563.982 230.618 559.213 235.27C552.295 242.012 540.592 243.071 534.763 234.666C529.111 226.511 533.409 200.251 538.767 195.997C546.686 189.711 561.038 193.406 564.542 203.548Z" fill="#AD6359"/>
<path d="M544.64 216.384C544.64 216.384 544.728 216.384 544.728 216.516C544.508 217.871 544.493 219.46 545.67 220.064V220.152C544.198 219.77 544.243 217.665 544.64 216.384Z" fill="#263238"/>
<path d="M546.112 215.133C548.32 215.251 547.937 219.667 545.891 219.549C543.845 219.431 544.213 215.044 546.112 215.133Z" fill="#263238"/>
<path d="M536.971 215.722C536.971 215.722 536.868 215.722 536.853 215.825C536.853 217.194 536.471 218.769 535.19 219.107V219.181C536.721 219.107 537.118 217.032 536.971 215.722Z" fill="#263238"/>
<path d="M535.882 214.176C533.688 213.823 533.129 218.224 535.16 218.592C537.192 218.96 537.707 214.485 535.882 214.176Z" fill="#263238"/>
<path d="M547.981 213.263C547.393 213.057 546.892 212.778 546.318 212.513C545.697 212.329 545.154 211.947 544.773 211.423C544.688 211.235 544.666 211.024 544.712 210.822C544.757 210.621 544.866 210.439 545.023 210.305C545.38 210.095 545.786 209.984 546.2 209.984C546.614 209.984 547.021 210.095 547.378 210.305C548.174 210.6 548.83 211.183 549.218 211.939C549.289 212.115 549.308 212.308 549.273 212.495C549.238 212.682 549.15 212.855 549.021 212.994C548.891 213.133 548.724 213.232 548.54 213.28C548.356 213.327 548.162 213.322 547.981 213.263Z" fill="#263238"/>
<path d="M534.336 211.806C534.94 211.739 535.54 211.636 536.132 211.497C536.776 211.48 537.396 211.253 537.899 210.849C538.027 210.686 538.098 210.483 538.098 210.275C538.098 210.067 538.027 209.865 537.899 209.701C537.611 209.404 537.25 209.187 536.852 209.073C536.454 208.96 536.033 208.953 535.632 209.053C534.785 209.146 534.003 209.55 533.438 210.187C533.314 210.342 533.239 210.53 533.223 210.728C533.206 210.926 533.249 211.124 533.345 211.297C533.441 211.471 533.587 211.612 533.763 211.702C533.94 211.793 534.139 211.829 534.336 211.806Z" fill="#263238"/>
<path d="M545.023 228.984C544.67 229.264 544.302 229.676 543.801 229.676C543.283 229.625 542.781 229.464 542.329 229.205C542.502 229.491 542.75 229.724 543.046 229.88C543.341 230.035 543.674 230.107 544.007 230.088C544.29 230.039 544.552 229.908 544.761 229.712C544.97 229.516 545.117 229.263 545.185 228.984C545.185 228.97 545.082 228.94 545.023 228.984Z" fill="#263238"/>
<path d="M543.948 224.76C543.552 225.27 543.054 225.693 542.487 226.002C541.919 226.311 541.294 226.499 540.651 226.556C540.094 226.636 539.529 226.636 538.973 226.556H538.649H538.355C538.283 226.536 538.22 226.494 538.175 226.436C538.13 226.377 538.105 226.306 538.104 226.232C538.104 226.232 538.104 226.143 538.104 226.084V225.967C538.104 224.907 538.413 223.302 538.413 223.302C538.001 223.464 535.97 224.186 536.043 223.626C536.587 218.885 537.602 214.211 539.076 209.672C539.085 209.646 539.102 209.623 539.124 209.607C539.147 209.591 539.173 209.583 539.201 209.583C539.228 209.583 539.255 209.591 539.278 209.607C539.3 209.623 539.317 209.646 539.326 209.672C538.855 214.088 537.618 218.327 537.074 222.728C537.804 222.468 538.567 222.309 539.341 222.257C539.488 222.257 538.811 225.334 538.826 225.805C539.683 225.963 540.564 225.949 541.416 225.762C542.268 225.575 543.074 225.219 543.786 224.716C543.933 224.554 544.036 224.657 543.948 224.76Z" fill="#263238"/>
<path d="M539.635 226.011C540.147 226.811 540.857 227.465 541.696 227.91C542.152 228.135 542.665 228.217 543.168 228.145C544.287 227.954 544.39 226.953 544.272 226.07C544.199 225.605 544.071 225.15 543.889 224.716C542.644 225.585 541.154 226.039 539.635 226.011Z" fill="#263238"/>
<path d="M541.696 227.91C542.152 228.135 542.665 228.217 543.168 228.145C544.287 227.954 544.39 226.953 544.272 226.07C543.7 226.049 543.137 226.218 542.671 226.551C542.204 226.883 541.862 227.361 541.696 227.91Z" fill="#FF97B8"/>
<path opacity="0.2" d="M560.346 197.38C560.081 200.104 559.448 208.494 560.479 210.393C561.509 212.292 563.658 216.634 564.895 217.459C565.542 211.88 565.498 206.492 564.483 203.548C563.669 201.165 562.243 199.037 560.346 197.38Z" fill="#263238"/>
<path d="M543.036 202.636C543.683 203.59 544.564 204.361 545.595 204.877C546.626 205.392 547.772 205.634 548.924 205.58C550.094 205.538 551.233 205.197 552.234 204.589C553.234 203.981 554.061 203.126 554.635 202.106C554.635 202.106 554.753 202.106 554.724 202.106C554.211 203.237 553.398 204.205 552.372 204.906C551.347 205.607 550.149 206.013 548.909 206.08C547.698 206.088 546.506 205.779 545.452 205.182C544.398 204.585 543.519 203.723 542.903 202.68C542.845 202.636 542.977 202.547 543.036 202.636Z" fill="#263238"/>
<path d="M551.809 186.944C553.571 187.153 555.252 187.802 556.697 188.831C558.143 189.86 559.307 191.236 560.081 192.832C560.697 194.419 560.759 196.166 560.258 197.793C560.258 197.793 560.096 197.793 560.111 197.793C560.359 196.331 560.208 194.829 559.675 193.446C559.141 192.062 558.244 190.849 557.079 189.932C555.815 188.877 554.324 188.129 552.722 187.749C551.121 187.368 549.452 187.365 547.849 187.739C546.284 188.073 544.891 188.955 543.919 190.227C543.831 190.344 543.551 190.227 543.625 190.094C544.949 187.754 548.32 186.488 551.809 186.944Z" fill="#263238"/>
<path d="M528.448 192.832C529.298 190.998 530.768 189.523 532.599 188.666C535.146 187.474 537.795 187.989 540.43 188.563C540.504 188.563 540.43 188.681 540.43 188.666C538.23 188.019 535.889 188.019 533.688 188.666C531.867 189.338 530.337 190.624 529.361 192.302C528.404 194.03 528.101 196.046 528.51 197.979C528.918 199.912 530.009 201.633 531.584 202.827C532.506 203.501 533.556 203.979 534.67 204.232C535.784 204.485 536.937 204.508 538.06 204.299C538.06 204.299 538.193 204.417 538.06 204.431C536.044 204.888 533.931 204.593 532.117 203.601C530.304 202.608 528.915 200.988 528.213 199.044C527.515 197.016 527.599 194.801 528.448 192.832Z" fill="#263238"/>
<path d="M565.557 207.626C565.557 207.626 569.973 201.105 567.339 196.762C565.867 194.304 560.052 193.98 560.052 193.98C558.758 191.518 556.54 189.67 553.884 188.843C549.174 187.209 543.124 189.417 543.124 189.417C543.124 189.417 538.826 186.282 534.292 188.269C527.918 191.051 527.683 200.251 533.394 203.843C537.413 206.36 543.566 203.239 543.566 203.239C544.11 203.372 549.454 207.405 554.223 202.827C554.223 202.827 557.373 206.286 560.729 204.461C561.118 205.416 561.787 206.231 562.65 206.796C563.512 207.361 564.526 207.651 565.557 207.626Z" fill="#263238"/>
<path d="M560.832 220.064C560.832 220.064 565.248 213.499 568.192 215.059C571.136 216.62 567.898 226.099 564.468 227.439C564.04 227.643 563.574 227.758 563.1 227.777C562.626 227.796 562.153 227.718 561.71 227.549C561.267 227.38 560.863 227.122 560.522 226.792C560.181 226.462 559.911 226.066 559.728 225.628L560.832 220.064Z" fill="#AD6359"/>
<path d="M615.399 353.28C615.208 353.53 525.607 361.626 524.695 360.787C523.444 359.58 528.787 269.935 544.788 251.609C548.718 247.105 562.628 241.688 567.206 244.499C579.085 251.859 586.416 268.346 591.111 277.972C594.6 285.097 599.075 297.359 603.226 309.959C610.071 330.7 616.062 352.353 615.399 353.28Z" fill="#282FBA"/>
<path d="M558.904 274.749C558.24 276.147 557.783 277.635 557.549 279.165C558.538 277.976 559.36 276.659 559.993 275.249C560.65 273.848 561.106 272.362 561.347 270.833C560.358 272.021 559.536 273.338 558.904 274.749ZM543.816 333.482C543.158 334.882 542.702 336.369 542.461 337.898C543.463 336.714 544.286 335.39 544.905 333.967C545.569 332.568 546.03 331.081 546.274 329.551C545.272 330.738 544.444 332.061 543.816 333.482ZM581.043 330.67C580.367 332.066 579.901 333.554 579.659 335.086C580.673 333.914 581.502 332.593 582.117 331.171C582.782 329.772 583.243 328.284 583.486 326.755C582.49 327.937 581.667 329.255 581.043 330.67ZM605.08 342.814C603.68 342.152 602.194 341.691 600.664 341.445C603.057 343.421 605.924 344.74 608.981 345.272C607.805 344.271 606.491 343.443 605.08 342.814ZM544.375 296.372C542.976 295.709 541.489 295.248 539.959 295.004C541.139 296.008 542.458 296.836 543.875 297.462C545.276 298.119 546.762 298.575 548.291 298.816C547.112 297.815 545.793 296.991 544.375 296.372ZM568.413 250.961C567.015 250.293 565.527 249.832 563.997 249.592C565.182 250.596 566.506 251.424 567.927 252.051C569.328 252.708 570.815 253.163 572.343 253.405C571.158 252.405 569.834 251.582 568.413 250.961ZM545.715 255.583C545.306 254.458 544.783 253.378 544.154 252.36L543.742 252.919C543.942 253.971 544.227 255.005 544.596 256.01C545.117 257.464 545.841 258.836 546.745 260.088C546.624 258.544 546.277 257.026 545.715 255.583ZM581.44 292.383C580.916 290.931 580.193 289.559 579.291 288.306C579.419 289.844 579.766 291.356 580.321 292.796C580.842 294.254 581.566 295.631 582.47 296.888C582.339 295.355 581.992 293.848 581.44 292.413V292.383ZM586.975 354.207C587.009 354.796 587.088 355.382 587.21 355.959L588.049 355.885C587.739 355.292 587.38 354.726 586.975 354.193V354.207ZM531.642 354.855C531.121 353.397 530.398 352.019 529.493 350.763C529.614 352.307 529.962 353.824 530.524 355.267C531.045 356.721 531.768 358.093 532.673 359.345C532.544 357.802 532.197 356.285 531.642 354.84V354.855ZM603.844 311.873L602.725 312.255C601.265 312.765 599.887 313.484 598.633 314.39C600.176 314.261 601.692 313.914 603.137 313.359C603.491 313.232 603.844 313.085 604.197 312.918L603.844 311.873ZM561.921 349.556C560.468 350.072 559.096 350.79 557.844 351.69C560.933 351.397 563.891 350.301 566.426 348.511C564.882 348.634 563.365 348.981 561.921 349.541V349.556ZM564.865 314.228C563.408 314.74 562.034 315.464 560.788 316.377C562.327 316.254 563.839 315.907 565.277 315.347C566.737 314.828 568.115 314.105 569.37 313.197C567.841 313.323 566.338 313.67 564.909 314.228H564.865ZM535.16 274.278C535.072 274.66 534.969 275.028 534.881 275.411C535.736 275.009 536.546 274.516 537.295 273.939C536.59 273.993 535.891 274.107 535.205 274.278H535.16ZM584.958 265.77C583.735 266.24 582.581 266.874 581.528 267.654C582.892 267.559 584.235 267.271 585.517 266.8L584.958 265.77Z" fill="white"/>
<path d="M559.154 266.977C555.518 290.308 547.01 325.459 535.602 333.57C529.803 337.692 493.238 337.839 481.609 336.632C476.663 336.116 481.786 299.67 487.085 300.038C492.973 300.435 514.214 300.965 518.144 300.435C520.397 300.141 531.392 277.236 542.064 259.572C554.679 238.832 562.113 248.032 559.154 266.977Z" fill="#AD6359"/>
<path d="M489.793 300.774C489.793 300.774 476.737 294.694 468.008 291.132C463.136 289.13 454.48 286.466 450.241 286.643C443.882 286.893 417.474 292.03 418.578 298.419C419.579 304.307 441.718 296.947 441.718 296.947C441.718 296.947 418.74 302.334 421.228 309.12C423.715 315.906 447.635 304.336 447.635 304.336C447.635 304.336 424.083 310.401 427.822 316.995C430.604 321.971 452.846 312.712 452.846 312.712C452.846 312.712 432.695 318.07 435.344 323.31C438.288 329.11 459.323 321.838 459.323 321.838C468.273 334.041 477.532 336.19 484.347 336.926C485.937 337.162 489.793 300.774 489.793 300.774Z" fill="#AD6359"/>
<path d="M449.534 294.621C446.811 295.151 444.058 295.666 441.394 296.446C438.73 297.226 436.095 298.095 433.504 299.11C430.104 300.371 426.863 302.026 423.848 304.042C429.471 300.877 438.965 297.948 441.629 297.167C444.294 296.387 446.914 295.489 449.578 294.709C449.637 294.694 449.608 294.606 449.534 294.621Z" fill="#263238"/>
<path d="M452.508 304.189C449.063 305.013 445.619 305.661 442.204 306.706C438.789 307.751 434.108 309.223 430.781 310.445C430.531 310.533 430.56 310.931 430.781 310.857C434.152 309.782 439.024 308.428 442.395 307.383C445.766 306.338 449.107 305.175 452.508 304.262C452.596 304.248 452.566 304.174 452.508 304.189Z" fill="#263238"/>
<path d="M456.541 311.946C451.223 313.096 446.039 314.793 441.07 317.01C440.834 317.113 441.07 317.231 441.276 317.128C446.384 315.361 450.388 313.919 456.585 312.123C456.673 312.064 456.658 311.917 456.541 311.946Z" fill="#263238"/>
<path d="M503.557 300.582C506.118 300.406 508.679 300.332 511.24 300.259L515.068 300.126L516.967 300.038C517.261 300.038 517.6 300.038 517.85 299.949H518.056C518.056 299.949 518.056 299.949 518.129 299.876C518.203 299.802 518.277 299.773 518.38 299.655C519.195 298.735 519.933 297.751 520.588 296.711C521.294 295.666 521.957 294.562 522.648 293.502C524.017 291.338 525.342 289.086 526.755 286.996C525.754 289.366 524.606 291.662 523.384 293.929C522.22 296.264 520.798 298.461 519.145 300.479C518.86 300.805 518.469 301.019 518.041 301.083C517.705 301.138 517.366 301.172 517.025 301.186C516.378 301.186 515.73 301.186 515.082 301.186C513.802 301.186 512.521 301.186 511.24 301.186C508.679 301.009 506.118 300.862 503.557 300.582Z" fill="#263238"/>
<path d="M556.902 300.774L524.165 285.745C524.165 285.745 535.16 263.105 545.376 251.889C555.592 240.672 560.95 248.106 560.744 262.87C560.538 277.634 556.902 300.774 556.902 300.774Z" fill="#282FBA"/>
<path d="M532.864 274.999C531.407 275.511 530.033 276.235 528.787 277.148C530.325 277.025 531.838 276.678 533.276 276.118C534.736 275.6 536.113 274.876 537.368 273.969C535.825 274.09 534.307 274.437 532.864 274.999ZM545.744 255.583C545.398 254.669 544.989 253.778 544.522 252.919C544.316 253.14 544.125 253.375 543.919 253.611C544.101 254.425 544.337 255.227 544.625 256.01C545.147 257.464 545.87 258.836 546.774 260.088C546.644 258.542 546.287 257.025 545.715 255.583H545.744ZM558.992 274.719C558.328 276.118 557.872 277.605 557.638 279.135C558.626 277.947 559.448 276.63 560.081 275.22V275.102C560.17 274.145 560.243 273.188 560.317 272.246C559.788 273.047 559.316 273.883 558.904 274.749L558.992 274.719Z" fill="white"/>
<path d="M528.551 280.622C538.067 284.328 547.322 288.67 556.254 293.62C556.254 293.62 556.254 293.87 556.151 293.855C548.394 290.764 533.409 283.434 528.419 280.946C528.316 280.902 528.448 280.578 528.551 280.622Z" fill="#263238"/>
<path d="M552.795 298.89C554.267 299.361 555.636 299.92 557.049 300.362L556.549 300.641C557.078 295.416 557.697 290.22 558.359 285.023L559.375 277.236C559.718 274.646 560.086 272.045 560.479 269.435C560.587 272.065 560.587 274.7 560.479 277.34C560.332 279.96 560.14 282.58 559.831 285.2C559.274 290.429 558.429 295.623 557.299 300.759L557.196 301.245L556.799 301.024C555.43 300.362 554.09 299.67 552.795 298.89Z" fill="#263238"/>
<path d="M559.448 281.917C559.611 280.599 559.912 279.302 560.346 278.046C560.743 276.771 561.276 275.542 561.936 274.381C561.768 275.703 561.467 277.005 561.038 278.267C560.637 279.536 560.104 280.759 559.448 281.917Z" fill="#263238"/>
<path d="M541.461 286.863H541.122L540.813 286.79L534.645 285.318L534.277 285.244L530.759 284.42L530.347 284.332L524.768 283.036L524.312 282.918L520.897 282.124L520.396 282.02L513.964 280.548L513.419 280.416L509.562 279.518L508.959 279.386L504.16 278.208L503.512 278.061L499.288 277.075L498.611 276.927L492.723 275.573L492.119 275.426L487.703 274.396L487.114 274.263L482.86 273.277L482.36 273.159L477.502 272.026L477.016 271.908L472.806 270.936L472.512 270.848L466.624 269.479L466.197 269.376L459.971 267.904L459.632 267.816L454.848 266.712L454.539 266.638L448.357 265.166H448.092L442.881 263.959H442.645L437.184 262.693L442.027 260.544L442.233 260.456L447.812 257.968L448.062 257.865L452.846 255.731L453.126 255.613L459.235 252.904L459.573 252.742L463.665 250.932L464.033 250.77L473.027 246.766L473.469 246.575L475.721 245.574L476.192 245.368L485.024 241.467L485.569 241.231L487.497 240.378L488.071 240.127L497.095 236.124L497.786 235.829L499.803 234.931L500.465 234.637L509.945 230.427L510.637 230.118L511.741 229.632L512.389 229.338L522.84 224.701L523.443 224.436L524.4 224.024L524.959 223.773L535.352 219.151L535.72 220.035L536.029 220.771L536.117 220.991C536.25 221.286 536.367 221.58 536.485 221.875C539.443 229.29 541.609 236.997 542.947 244.867C542.947 245.176 543.05 245.485 543.109 245.809C543.685 249.412 544.063 253.043 544.243 256.687C544.243 257.394 544.316 258.086 544.331 258.792C544.528 268.232 543.564 277.659 541.461 286.863Z" fill="#C7C7C7"/>
<path d="M442.115 260.367L442.763 263.93H442.527L441.909 260.515L442.115 260.367ZM447.694 257.88L447.974 265.137H448.239L447.944 257.777L447.694 257.88ZM453.008 255.524L452.728 255.642L454.421 266.638L454.73 266.712L453.008 255.524ZM459.117 252.816L459.514 267.816L459.853 267.904L459.455 252.654L459.117 252.816ZM463.916 250.682L463.548 250.844L466.079 269.376L466.506 269.479L463.916 250.682ZM472.674 258.895L472.512 270.848L472.924 270.951L473.174 258.94L473.425 246.516L472.983 246.707L472.674 258.895ZM476.074 245.279L475.603 245.485L477.075 271.893L477.561 272.011L476.074 245.279ZM482.404 273.144L482.904 273.262L485.392 241.143L484.847 241.379L482.404 273.144ZM487.32 240.275L487.232 274.248L487.821 274.381L487.968 240.024L487.32 240.275ZM496.918 236.02L492.178 275.411L492.781 275.558L497.61 235.711L496.918 236.006V236.02ZM499.626 234.813L498.611 276.913L499.288 277.06L500.289 234.519L499.626 234.813ZM509.768 230.309L503.512 278.046L504.16 278.193L510.46 230L509.768 230.309ZM511.564 229.514L508.959 279.312L509.562 279.444L512.212 229.22L511.564 229.514ZM522.663 224.583L513.419 280.342L513.964 280.475L523.267 224.318L522.663 224.583ZM524.223 223.891L520.396 281.962L520.897 282.065L524.783 223.626L524.223 223.891ZM535.852 220.653L535.543 219.917L524.312 282.874L524.768 282.992L535.808 220.668L535.852 220.653ZM535.941 220.903L530.347 284.287L530.759 284.376L536.309 221.786C536.191 221.492 536.073 221.197 535.941 220.903ZM542.933 245.736C542.933 245.412 542.83 245.103 542.771 244.794L534.336 285.2L534.704 285.274L542.933 245.824V245.736ZM544.066 256.628L540.813 286.716L541.122 286.79L544.154 258.822C544.14 258.027 544.11 257.335 544.066 256.628Z" fill="#DBDBDB"/>
<path d="M541.461 286.863H532.835L428.44 262.605H437.066L541.461 286.863Z" fill="#A6A6A6"/>
<path d="M437.066 262.605H428.44L526.549 219.019H535.175L437.066 262.605Z" fill="#A6A6A6"/>
<path d="M131.008 498.375C131.464 486.761 131.302 475.13 130.522 463.533C128.813 439.612 125.165 415.869 119.614 392.538C116.612 379.393 112.873 366.528 108.928 353.574C108.81 353.192 108.192 353.295 108.295 353.707C120.38 399.192 130.286 446.119 129.609 493.4C129.418 506.648 127.887 519.631 126.665 532.776C126.665 533.129 127.21 533.261 127.298 532.908C129.54 521.527 130.781 509.972 131.008 498.375Z" fill="#282FBA"/>
<path d="M108.324 353.707C108.324 353.707 90.0275 400.149 94.1344 411.115C98.2413 422.081 106.676 424.363 106.676 424.363C106.676 424.363 95.4739 440.349 103.305 455.348C111.136 470.348 128.506 469.627 129.654 486.628C129.654 486.57 130.625 415.487 108.324 353.707Z" fill="#282FBA"/>
<path d="M127.666 457.218C127.696 457.137 127.696 457.049 127.666 456.968C125.25 425.274 119.291 393.951 109.899 363.584C109.899 363.564 109.892 363.546 109.878 363.532C109.864 363.518 109.845 363.51 109.826 363.51C109.806 363.51 109.788 363.518 109.774 363.532C109.76 363.546 109.752 363.564 109.752 363.584C113.373 377.175 116.577 390.831 119.364 404.55C116.901 402.226 113.895 400.556 110.621 399.692C110.621 399.692 110.532 399.692 110.621 399.78C114.061 401.048 117.153 403.111 119.644 405.801C120.174 408.495 120.704 411.189 121.116 413.882C117.039 409.319 111.357 407.052 105.689 404.888V405.021C111.577 407.42 117.465 410.526 121.484 415.619C122.927 423.313 124.139 431.046 125.12 438.818C122.165 435.723 118.376 433.55 114.212 432.562C114.08 432.562 114.006 432.724 114.139 432.753C118.437 433.999 122.281 436.463 125.208 439.848C125.576 442.586 125.929 445.309 126.253 448.047C123.961 446.117 121.378 444.562 118.599 443.44C118.599 443.44 118.481 443.528 118.599 443.558C121.431 444.786 124.026 446.5 126.268 448.621H126.356C126.665 451.227 126.975 453.818 127.225 456.423C123.106 451.444 117.758 447.629 111.71 445.354C111.592 445.354 111.533 445.486 111.71 445.53C117.679 448.172 122.924 452.211 127.004 457.306C127.047 457.364 127.107 457.407 127.176 457.428C127.245 457.449 127.319 457.448 127.387 457.424C127.779 461.408 128.128 465.412 128.432 469.436H128.52C128.285 465.417 128.064 461.325 127.666 457.218Z" fill="#263238"/>
<path d="M112.961 395.07C109.651 393.012 105.872 391.832 101.98 391.64C101.96 391.64 101.942 391.648 101.928 391.662C101.914 391.676 101.906 391.694 101.906 391.714C101.906 391.733 101.914 391.752 101.928 391.766C101.942 391.78 101.96 391.788 101.98 391.788C105.744 392.478 109.397 393.671 112.843 395.335C112.877 395.343 112.912 395.34 112.943 395.324C112.974 395.309 112.999 395.284 113.013 395.252C113.027 395.22 113.03 395.185 113.02 395.152C113.011 395.118 112.99 395.089 112.961 395.07Z" fill="#263238"/>
<path d="M115.184 444.235C112.64 442.782 109.842 441.828 106.941 441.423C106.921 441.423 106.903 441.431 106.889 441.445C106.875 441.459 106.867 441.477 106.867 441.497C106.867 441.516 106.875 441.535 106.889 441.549C106.903 441.563 106.921 441.571 106.941 441.571C109.78 442.141 112.525 443.107 115.096 444.441C115.199 444.544 115.302 444.308 115.184 444.235Z" fill="#263238"/>
<path d="M179.157 411.821C171.419 417.174 164.313 423.386 157.975 430.339C151.442 437.695 146.398 446.248 143.123 455.525C136.176 474.866 132.437 495.212 132.053 515.759C131.824 527.133 132.92 538.495 135.321 549.615C135.344 549.692 135.395 549.757 135.463 549.798C135.531 549.84 135.612 549.855 135.69 549.84C135.769 549.826 135.839 549.783 135.888 549.719C135.936 549.656 135.96 549.577 135.954 549.498C132.97 529.862 133.079 509.881 136.278 490.279C139.428 471.143 144.359 450.167 156.577 434.549C163.23 426.041 171.518 419.358 179.717 412.469C180.143 412.16 179.584 411.512 179.157 411.821Z" fill="#282FBA"/>
<path d="M134.747 501.952C139.138 494.822 144.301 488.197 150.144 482.198C159.3 473.042 167.013 466.55 168.19 460.486C169.368 454.421 159.02 449.976 159.02 449.976C159.02 449.976 171.694 452.257 175.212 446.943C178.73 441.629 180.364 410.835 180.364 410.835C180.364 410.835 157.312 427.292 146.508 450.344C135.703 473.395 134.747 501.952 134.747 501.952Z" fill="#282FBA"/>
<path d="M172.106 439.716C170.591 439.493 169.056 439.438 167.528 439.554C167.352 439.554 167.366 439.878 167.528 439.878C169 439.878 170.561 439.878 172.077 439.878C172.089 439.885 172.103 439.89 172.117 439.891C172.132 439.892 172.146 439.889 172.159 439.883C172.172 439.877 172.184 439.868 172.193 439.857C172.201 439.846 172.207 439.832 172.21 439.818C172.213 439.804 172.212 439.79 172.207 439.776C172.203 439.762 172.195 439.75 172.185 439.74C172.175 439.73 172.162 439.722 172.149 439.718C172.135 439.714 172.12 439.713 172.106 439.716Z" fill="#263238"/>
<path d="M155.532 469.568C153.093 469.634 150.686 470.132 148.422 471.04C148.422 471.04 148.422 471.158 148.422 471.143C150.777 470.584 153.147 470.348 155.517 469.965C155.738 469.907 155.723 469.568 155.532 469.568Z" fill="#263238"/>
<path d="M150.556 459.264C149.568 459.259 148.582 459.353 147.612 459.544C147.589 459.544 147.566 459.553 147.55 459.57C147.533 459.586 147.524 459.609 147.524 459.632C147.524 459.655 147.533 459.678 147.55 459.694C147.566 459.711 147.589 459.72 147.612 459.72C148.62 459.774 149.632 459.725 150.63 459.573C150.664 459.558 150.692 459.531 150.708 459.497C150.725 459.463 150.729 459.425 150.72 459.388C150.711 459.352 150.69 459.319 150.66 459.297C150.631 459.274 150.594 459.263 150.556 459.264Z" fill="#263238"/>
<path d="M67.1967 444.544C74.6955 447.081 81.881 450.464 88.6143 454.627C95.6025 459.072 101.662 464.831 106.455 471.585C116.551 485.63 124.278 501.233 129.33 517.776C132.153 526.933 133.897 536.388 134.526 545.95C134.512 546.012 134.477 546.066 134.427 546.105C134.378 546.145 134.317 546.166 134.254 546.166C134.191 546.166 134.129 546.145 134.08 546.105C134.03 546.066 133.996 546.012 133.981 545.95C131.86 529.372 127.152 513.229 120.027 498.11C113.05 483.287 104.218 467.507 90.7193 457.689C83.3593 452.346 75.1161 448.857 66.8876 445.148C66.4607 444.956 66.7698 444.353 67.1967 444.544Z" fill="#282FBA"/>
<path d="M123.957 507.163C118.745 502.417 113.029 498.256 106.911 494.754C97.3874 489.469 89.6447 485.922 87.2748 481.359C84.9049 476.796 92.2649 470.731 92.2649 470.731C92.2649 470.731 82.5497 475.5 78.5164 472.012C74.4831 468.523 66.0044 443.97 66.0044 443.97C66.0044 443.97 88.4524 451.904 102.481 468.096C116.509 484.288 123.957 507.163 123.957 507.163Z" fill="#282FBA"/>
<path d="M105.322 484.612C103.117 484.462 100.905 484.732 98.8008 485.407C98.8008 485.407 98.8008 485.524 98.8008 485.51C100.948 485.149 103.116 484.928 105.292 484.847C105.324 484.851 105.355 484.843 105.38 484.823C105.405 484.804 105.421 484.776 105.425 484.744C105.429 484.713 105.42 484.682 105.401 484.657C105.381 484.632 105.353 484.616 105.322 484.612Z" fill="#263238"/>
<path d="M85.7437 458.925C84.7589 458.858 83.7695 458.917 82.7997 459.102C82.682 459.102 82.7261 459.293 82.7997 459.279C83.786 459.176 84.7575 459.279 85.7437 459.19C85.7789 459.19 85.8126 459.176 85.8374 459.152C85.8623 459.127 85.8762 459.093 85.8762 459.058C85.8762 459.023 85.8623 458.989 85.8374 458.964C85.8126 458.939 85.7789 458.925 85.7437 458.925Z" fill="#263238"/>
<path d="M152.911 576.862H102.23L109.458 523.929L111.313 510.357H143.844L145.684 523.929L152.911 576.862Z" fill="#455A64"/>
<path d="M145.684 523.929H109.458L111.313 510.357H143.844L145.684 523.929Z" fill="#263238"/>
<path d="M148.495 505.647H106.661V517.143H148.495V505.647Z" fill="#455A64"/>
</svg>
